solid OpenSCAD_Model
  facet normal 1 -0 0
    outer loop
      vertex -2.5 -30 2.5
      vertex -2.5 -15 -2.5
      vertex -2.5 -15 2.5
    endloop
  endfacet
  facet normal 1 0 0
    outer loop
      vertex -2.5 -15 -2.5
      vertex -2.5 -30 2.5
      vertex -2.5 -30 -2.5
    endloop
  endfacet
  facet normal -1 0 0
    outer loop
      vertex -2.5 -10 -2.5
      vertex -2.5 10 2.5
      vertex -2.5 10 -2.5
    endloop
  endfacet
  facet normal -1 -0 0
    outer loop
      vertex -2.5 10 2.5
      vertex -2.5 -10 -2.5
      vertex -2.5 -10 2.5
    endloop
  endfacet
  facet normal 0 0 1
    outer loop
      vertex 22.5 15 2.5
      vertex 2.5 10 2.5
      vertex 22.5 10 2.5
    endloop
  endfacet
  facet normal 0 0 1
    outer loop
      vertex -2.5 -10 2.5
      vertex 2.5 -10 2.5
      vertex 2.5 10 2.5
    endloop
  endfacet
  facet normal 0 0 1
    outer loop
      vertex -2.5 -10 2.5
      vertex 2.5 10 2.5
      vertex -2.5 10 2.5
    endloop
  endfacet
  facet normal 0 0 1
    outer loop
      vertex 22.5 15 2.5
      vertex -2.5 10 2.5
      vertex 2.5 10 2.5
    endloop
  endfacet
  facet normal -0 0 1
    outer loop
      vertex -22.5 15 2.5
      vertex -2.5 10 2.5
      vertex 22.5 15 2.5
    endloop
  endfacet
  facet normal 0 0 1
    outer loop
      vertex -2.5 10 2.5
      vertex -22.5 15 2.5
      vertex -22.5 10 2.5
    endloop
  endfacet
  facet normal 0 0 1
    outer loop
      vertex 2.5 -15 2.5
      vertex 7.5 -10 2.5
      vertex 2.5 -10 2.5
    endloop
  endfacet
  facet normal 0 0 1
    outer loop
      vertex 7.5 -10 2.5
      vertex 2.5 -15 2.5
      vertex 7.5 -30 2.5
    endloop
  endfacet
  facet normal 0 0 1
    outer loop
      vertex 7.5 -30 2.5
      vertex 2.5 -15 2.5
      vertex 2.5 -30 2.5
    endloop
  endfacet
  facet normal 0 0 1
    outer loop
      vertex 2.5 -10 2.5
      vertex -2.5 -10 2.5
      vertex 2.5 -15 2.5
    endloop
  endfacet
  facet normal 0 0 1
    outer loop
      vertex -2.5 -10 2.5
      vertex -2.5 -15 2.5
      vertex 2.5 -15 2.5
    endloop
  endfacet
  facet normal -0 0 1
    outer loop
      vertex -7.5 -10 2.5
      vertex -2.5 -15 2.5
      vertex -2.5 -10 2.5
    endloop
  endfacet
  facet normal 0 0 1
    outer loop
      vertex -7.5 -30 2.5
      vertex -2.5 -15 2.5
      vertex -7.5 -10 2.5
    endloop
  endfacet
  facet normal 0 0 1
    outer loop
      vertex -2.5 -15 2.5
      vertex -7.5 -30 2.5
      vertex -2.5 -30 2.5
    endloop
  endfacet
  facet normal -1 0 0
    outer loop
      vertex 2.5 -30 -2.5
      vertex 2.5 -15 2.5
      vertex 2.5 -15 -2.5
    endloop
  endfacet
  facet normal -1 -0 0
    outer loop
      vertex 2.5 -15 2.5
      vertex 2.5 -30 -2.5
      vertex 2.5 -30 2.5
    endloop
  endfacet
  facet normal 1 -0 0
    outer loop
      vertex 2.5 -10 2.5
      vertex 2.5 10 -2.5
      vertex 2.5 10 2.5
    endloop
  endfacet
  facet normal 1 0 0
    outer loop
      vertex 2.5 10 -2.5
      vertex 2.5 -10 2.5
      vertex 2.5 -10 -2.5
    endloop
  endfacet
  facet normal 0 1 -0
    outer loop
      vertex 22.5 15 -2.5
      vertex -22.5 15 2.5
      vertex 22.5 15 2.5
    endloop
  endfacet
  facet normal 0 1 0
    outer loop
      vertex -22.5 15 2.5
      vertex 22.5 15 -2.5
      vertex -22.5 15 -2.5
    endloop
  endfacet
  facet normal 0 0 -1
    outer loop
      vertex 2.5 -15 -2.5
      vertex 7.5 -30 -2.5
      vertex 2.5 -30 -2.5
    endloop
  endfacet
  facet normal 0 0 -1
    outer loop
      vertex 7.5 -30 -2.5
      vertex 2.5 -15 -2.5
      vertex 7.5 -10 -2.5
    endloop
  endfacet
  facet normal 0 0 -1
    outer loop
      vertex 2.5 -15 -2.5
      vertex 2.5 -10 -2.5
      vertex 7.5 -10 -2.5
    endloop
  endfacet
  facet normal 0 0 -1
    outer loop
      vertex -2.5 -10 -2.5
      vertex 2.5 -10 -2.5
      vertex 2.5 -15 -2.5
    endloop
  endfacet
  facet normal 0 0 -1
    outer loop
      vertex -2.5 -10 -2.5
      vertex 2.5 -15 -2.5
      vertex -2.5 -15 -2.5
    endloop
  endfacet
  facet normal 0 0 -1
    outer loop
      vertex 2.5 10 -2.5
      vertex 22.5 15 -2.5
      vertex 22.5 10 -2.5
    endloop
  endfacet
  facet normal 0 0 -1
    outer loop
      vertex 2.5 -10 -2.5
      vertex -2.5 -10 -2.5
      vertex 2.5 10 -2.5
    endloop
  endfacet
  facet normal 0 0 -1
    outer loop
      vertex -2.5 10 -2.5
      vertex 2.5 10 -2.5
      vertex -2.5 -10 -2.5
    endloop
  endfacet
  facet normal 0 0 -1
    outer loop
      vertex -2.5 10 -2.5
      vertex 22.5 15 -2.5
      vertex 2.5 10 -2.5
    endloop
  endfacet
  facet normal 0 0 -1
    outer loop
      vertex -22.5 15 -2.5
      vertex -2.5 10 -2.5
      vertex -22.5 10 -2.5
    endloop
  endfacet
  facet normal 0 0 -1
    outer loop
      vertex -2.5 10 -2.5
      vertex -22.5 15 -2.5
      vertex 22.5 15 -2.5
    endloop
  endfacet
  facet normal 0 0 -1
    outer loop
      vertex -7.5 -30 -2.5
      vertex -2.5 -15 -2.5
      vertex -2.5 -30 -2.5
    endloop
  endfacet
  facet normal 0 0 -1
    outer loop
      vertex -7.5 -10 -2.5
      vertex -2.5 -15 -2.5
      vertex -7.5 -30 -2.5
    endloop
  endfacet
  facet normal 0 0 -1
    outer loop
      vertex -2.5 -15 -2.5
      vertex -7.5 -10 -2.5
      vertex -2.5 -10 -2.5
    endloop
  endfacet
  facet normal 0 -1 0
    outer loop
      vertex -2.5 -15 -2.5
      vertex 2.5 -15 2.5
      vertex -2.5 -15 2.5
    endloop
  endfacet
  facet normal 0 -1 -0
    outer loop
      vertex 2.5 -15 2.5
      vertex -2.5 -15 -2.5
      vertex 2.5 -15 -2.5
    endloop
  endfacet
  facet normal 1 -0 0
    outer loop
      vertex 22.5 10 2.5
      vertex 22.5 15 -2.5
      vertex 22.5 15 2.5
    endloop
  endfacet
  facet normal 1 0 0
    outer loop
      vertex 22.5 15 -2.5
      vertex 22.5 10 2.5
      vertex 22.5 10 -2.5
    endloop
  endfacet
  facet normal 0 -1 0
    outer loop
      vertex 2.5 10 -2.5
      vertex 22.5 10 2.5
      vertex 2.5 10 2.5
    endloop
  endfacet
  facet normal 0 -1 -0
    outer loop
      vertex 22.5 10 2.5
      vertex 2.5 10 -2.5
      vertex 22.5 10 -2.5
    endloop
  endfacet
  facet normal -1 0 0
    outer loop
      vertex -22.5 10 -2.5
      vertex -22.5 15 2.5
      vertex -22.5 15 -2.5
    endloop
  endfacet
  facet normal -1 -0 0
    outer loop
      vertex -22.5 15 2.5
      vertex -22.5 10 -2.5
      vertex -22.5 10 2.5
    endloop
  endfacet
  facet normal 0 -1 0
    outer loop
      vertex -22.5 10 -2.5
      vertex -2.5 10 2.5
      vertex -22.5 10 2.5
    endloop
  endfacet
  facet normal 0 -1 -0
    outer loop
      vertex -2.5 10 2.5
      vertex -22.5 10 -2.5
      vertex -2.5 10 -2.5
    endloop
  endfacet
  facet normal -1 0 0
    outer loop
      vertex -7.5 -30 -2.5
      vertex -7.5 -10 2.5
      vertex -7.5 -10 -2.5
    endloop
  endfacet
  facet normal -1 -0 0
    outer loop
      vertex -7.5 -10 2.5
      vertex -7.5 -30 -2.5
      vertex -7.5 -30 2.5
    endloop
  endfacet
  facet normal 0 1 -0
    outer loop
      vertex -2.5 -10 -2.5
      vertex -7.5 -10 2.5
      vertex -2.5 -10 2.5
    endloop
  endfacet
  facet normal 0 1 0
    outer loop
      vertex -7.5 -10 2.5
      vertex -2.5 -10 -2.5
      vertex -7.5 -10 -2.5
    endloop
  endfacet
  facet normal 0 -1 0
    outer loop
      vertex -7.5 -30 -2.5
      vertex -2.5 -30 2.5
      vertex -7.5 -30 2.5
    endloop
  endfacet
  facet normal 0 -1 -0
    outer loop
      vertex -2.5 -30 2.5
      vertex -7.5 -30 -2.5
      vertex -2.5 -30 -2.5
    endloop
  endfacet
  facet normal 1 -0 0
    outer loop
      vertex 7.5 -30 2.5
      vertex 7.5 -10 -2.5
      vertex 7.5 -10 2.5
    endloop
  endfacet
  facet normal 1 0 0
    outer loop
      vertex 7.5 -10 -2.5
      vertex 7.5 -30 2.5
      vertex 7.5 -30 -2.5
    endloop
  endfacet
  facet normal 0 1 -0
    outer loop
      vertex 7.5 -10 -2.5
      vertex 2.5 -10 2.5
      vertex 7.5 -10 2.5
    endloop
  endfacet
  facet normal 0 1 0
    outer loop
      vertex 2.5 -10 2.5
      vertex 7.5 -10 -2.5
      vertex 2.5 -10 -2.5
    endloop
  endfacet
  facet normal 0 -1 0
    outer loop
      vertex 2.5 -30 -2.5
      vertex 7.5 -30 2.5
      vertex 2.5 -30 2.5
    endloop
  endfacet
  facet normal 0 -1 -0
    outer loop
      vertex 7.5 -30 2.5
      vertex 2.5 -30 -2.5
      vertex 7.5 -30 -2.5
    endloop
  endfacet
endsolid OpenSCAD_Model
